{
    "patcher": {
        "fileversion": 1,
        "appversion": {
            "major": 9,
            "minor": 1,
            "revision": 1,
            "architecture": "x64",
            "modernui": 1
        },
        "classnamespace": "box",
        "rect": [ 1872.0, 239.0, 1000.0, 700.0 ],
        "boxes": [
            {
                "box": {
                    "id": "obj-82",
                    "maxclass": "number",
                    "numinlets": 1,
                    "numoutlets": 2,
                    "outlettype": [ "", "bang" ],
                    "parameter_enable": 0,
                    "patching_rect": [ 373.958319067955, 561.4583119153976, 50.0, 22.0 ]
                }
            },
            {
                "box": {
                    "id": "obj-78",
                    "maxclass": "newobj",
                    "numinlets": 2,
                    "numoutlets": 1,
                    "outlettype": [ "signal" ],
                    "patching_rect": [ 628.74, 751.46, 63.0, 22.0 ],
                    "text": "cycle~ 0.1"
                }
            },
            {
                "box": {
                    "id": "obj-77",
                    "maxclass": "newobj",
                    "numinlets": 3,
                    "numoutlets": 4,
                    "outlettype": [ "signal", "signal", "signal", "signal" ],
                    "patching_rect": [ 311.0, 620.8333096504211, 50.5, 22.0 ],
                    "text": "svf~"
                }
            },
            {
                "box": {
                    "id": "obj-72",
                    "maxclass": "newobj",
                    "numinlets": 2,
                    "numoutlets": 1,
                    "outlettype": [ "signal" ],
                    "patching_rect": [ 311.0, 556.2499787807465, 54.0, 22.0 ],
                    "text": "saw~ 55"
                }
            },
            {
                "box": {
                    "id": "obj-69",
                    "maxclass": "newobj",
                    "numinlets": 1,
                    "numoutlets": 1,
                    "outlettype": [ "signal" ],
                    "patching_rect": [ 326.0, 401.0416513681412, 39.0, 22.0 ],
                    "text": "tanh~"
                }
            },
            {
                "box": {
                    "id": "obj-68",
                    "maxclass": "newobj",
                    "numinlets": 1,
                    "numoutlets": 1,
                    "outlettype": [ "signal" ],
                    "patching_rect": [ 440.0, 392.7083183526993, 39.0, 22.0 ],
                    "text": "tanh~"
                }
            },
            {
                "box": {
                    "id": "obj-67",
                    "maxclass": "newobj",
                    "numinlets": 1,
                    "numoutlets": 1,
                    "outlettype": [ "signal" ],
                    "patching_rect": [ 527.0833132266998, 384.3749853372574, 39.0, 22.0 ],
                    "text": "tanh~"
                }
            },
            {
                "box": {
                    "id": "obj-66",
                    "maxclass": "newobj",
                    "numinlets": 1,
                    "numoutlets": 1,
                    "outlettype": [ "signal" ],
                    "patching_rect": [ 678.0, 392.7083183526993, 39.0, 22.0 ],
                    "text": "tanh~"
                }
            },
            {
                "box": {
                    "id": "obj-65",
                    "maxclass": "newobj",
                    "numinlets": 1,
                    "numoutlets": 1,
                    "outlettype": [ "signal" ],
                    "patching_rect": [ 467.70831549167633, 666.0714222192764, 39.0, 22.0 ],
                    "text": "tanh~"
                }
            },
            {
                "box": {
                    "id": "obj-64",
                    "maxclass": "newobj",
                    "numinlets": 2,
                    "numoutlets": 1,
                    "outlettype": [ "signal" ],
                    "patching_rect": [ 479.0, 614.5833098888397, 34.0, 22.0 ],
                    "text": "*~ 2."
                }
            },
            {
                "box": {
                    "id": "obj-63",
                    "maxclass": "newobj",
                    "numinlets": 2,
                    "numoutlets": 1,
                    "outlettype": [ "signal" ],
                    "patching_rect": [ 242.70832407474518, 758.3333044052124, 34.0, 22.0 ],
                    "text": "*~ 2."
                }
            },
            {
                "box": {
                    "id": "obj-62",
                    "maxclass": "newobj",
                    "numinlets": 1,
                    "numoutlets": 1,
                    "outlettype": [ "signal" ],
                    "patching_rect": [ 304.16665506362915, 770.8333039283752, 39.0, 22.0 ],
                    "text": "tanh~"
                }
            },
            {
                "box": {
                    "id": "obj-59",
                    "maxclass": "newobj",
                    "numinlets": 2,
                    "numoutlets": 2,
                    "outlettype": [ "signal", "bang" ],
                    "patching_rect": [ 148.28571271896362, 241.66665744781494, 48.0, 22.0 ],
                    "text": "line~ 1."
                }
            },
            {
                "box": {
                    "id": "obj-58",
                    "maxclass": "message",
                    "numinlets": 2,
                    "numoutlets": 1,
                    "outlettype": [ "" ],
                    "patching_rect": [ 148.28571271896362, 208.33332538604736, 79.0, 22.0 ],
                    "text": "0.1 20 1. 600"
                }
            },
            {
                "box": {
                    "id": "obj-56",
                    "maxclass": "button",
                    "numinlets": 1,
                    "numoutlets": 1,
                    "outlettype": [ "bang" ],
                    "parameter_enable": 0,
                    "patching_rect": [ 96.20253038406372, 198.0, 24.0, 24.0 ]
                }
            },
            {
                "box": {
                    "id": "obj-55",
                    "maxclass": "newobj",
                    "numinlets": 2,
                    "numoutlets": 1,
                    "outlettype": [ "signal" ],
                    "patching_rect": [ 21.5189870595932, 344.9367043375969, 29.5, 22.0 ],
                    "text": "*~"
                }
            },
            {
                "box": {
                    "id": "obj-53",
                    "maxclass": "message",
                    "numinlets": 2,
                    "numoutlets": 1,
                    "outlettype": [ "" ],
                    "patching_rect": [ 13.333333730697632, 199.0, 29.5, 22.0 ],
                    "text": "1"
                }
            },
            {
                "box": {
                    "id": "obj-49",
                    "maxclass": "newobj",
                    "numinlets": 5,
                    "numoutlets": 4,
                    "outlettype": [ "signal", "signal", "", "" ],
                    "patching_rect": [ 91.66666316986084, 288.5416556596756, 129.0, 22.0 ],
                    "text": "adsr~ 10 500 0.2 1000"
                }
            },
            {
                "box": {
                    "id": "obj-48",
                    "maxclass": "newobj",
                    "numinlets": 2,
                    "numoutlets": 1,
                    "outlettype": [ "signal" ],
                    "patching_rect": [ 13.333333730697632, 288.5416556596756, 70.0, 22.0 ],
                    "text": "cycle~ 41.2"
                }
            },
            {
                "box": {
                    "id": "obj-46",
                    "maxclass": "newobj",
                    "numinlets": 3,
                    "numoutlets": 3,
                    "outlettype": [ "bang", "bang", "" ],
                    "patching_rect": [ 124.00000369548798, 144.00000429153442, 51.0, 22.0 ],
                    "text": "sel 4 12"
                }
            },
            {
                "box": {
                    "id": "obj-45",
                    "maxclass": "newobj",
                    "numinlets": 2,
                    "numoutlets": 2,
                    "outlettype": [ "bang", "" ],
                    "patching_rect": [ 70.66666877269745, 144.00000429153442, 34.0, 22.0 ],
                    "text": "sel 8"
                }
            },
            {
                "box": {
                    "id": "obj-44",
                    "maxclass": "newobj",
                    "numinlets": 2,
                    "numoutlets": 2,
                    "outlettype": [ "bang", "" ],
                    "patching_rect": [ 13.333333730697632, 144.00000429153442, 34.0, 22.0 ],
                    "text": "sel 0"
                }
            },
            {
                "box": {
                    "id": "obj-43",
                    "maxclass": "newobj",
                    "numinlets": 5,
                    "numoutlets": 4,
                    "outlettype": [ "int", "", "", "int" ],
                    "patching_rect": [ 56.000001668930054, 103.33333641290665, 75.0, 22.0 ],
                    "text": "counter 0 15"
                }
            },
            {
                "box": {
                    "id": "obj-42",
                    "maxclass": "newobj",
                    "numinlets": 2,
                    "numoutlets": 1,
                    "outlettype": [ "bang" ],
                    "patching_rect": [ 56.000001668930054, 42.70833170413971, 63.0, 22.0 ],
                    "text": "metro 750"
                }
            },
            {
                "box": {
                    "id": "obj-41",
                    "maxclass": "toggle",
                    "numinlets": 1,
                    "numoutlets": 1,
                    "outlettype": [ "int" ],
                    "parameter_enable": 0,
                    "patching_rect": [ 56.000001668930054, 5.333333492279053, 24.0, 24.0 ]
                }
            },
            {
                "box": {
                    "id": "obj-37",
                    "maxclass": "newobj",
                    "numinlets": 2,
                    "numoutlets": 1,
                    "outlettype": [ "signal" ],
                    "patching_rect": [ 494.7916477918625, 553.1249788999557, 34.0, 22.0 ],
                    "text": "*~ 3."
                }
            },
            {
                "box": {
                    "id": "obj-36",
                    "maxclass": "toggle",
                    "numinlets": 1,
                    "numoutlets": 1,
                    "outlettype": [ "int" ],
                    "parameter_enable": 0,
                    "patching_rect": [ 727.0833055973053, 5.208333134651184, 24.0, 24.0 ]
                }
            },
            {
                "box": {
                    "id": "obj-34",
                    "maxclass": "newobj",
                    "numinlets": 2,
                    "numoutlets": 1,
                    "outlettype": [ "signal" ],
                    "patching_rect": [ 170.5, 537.0, 29.5, 22.0 ],
                    "text": "+~"
                }
            },
            {
                "box": {
                    "id": "obj-33",
                    "maxclass": "newobj",
                    "numinlets": 2,
                    "numoutlets": 1,
                    "outlettype": [ "signal" ],
                    "patching_rect": [ 164.28571271896362, 633.3333522081375, 49.0, 22.0 ],
                    "text": "+~ 0.55"
                }
            },
            {
                "box": {
                    "id": "obj-32",
                    "maxclass": "newobj",
                    "numinlets": 2,
                    "numoutlets": 1,
                    "outlettype": [ "signal" ],
                    "patching_rect": [ 164.28571271896362, 608.000018119812, 47.0, 22.0 ],
                    "text": "*~ 0.45"
                }
            },
            {
                "box": {
                    "id": "obj-31",
                    "maxclass": "newobj",
                    "numinlets": 2,
                    "numoutlets": 1,
                    "outlettype": [ "signal" ],
                    "patching_rect": [ 164.28571271896362, 575.0, 70.0, 22.0 ],
                    "text": "cycle~ 0.05"
                }
            },
            {
                "box": {
                    "id": "obj-30",
                    "maxclass": "newobj",
                    "numinlets": 3,
                    "numoutlets": 1,
                    "outlettype": [ "signal" ],
                    "patching_rect": [ 553.0, 575.0, 113.0, 22.0 ],
                    "text": "allpass~ 100 17 0.7"
                }
            },
            {
                "box": {
                    "id": "obj-29",
                    "maxclass": "newobj",
                    "numinlets": 3,
                    "numoutlets": 1,
                    "outlettype": [ "signal" ],
                    "patching_rect": [ 553.0, 537.0, 113.0, 22.0 ],
                    "text": "allpass~ 100 13 0.7"
                }
            },
            {
                "box": {
                    "id": "obj-28",
                    "maxclass": "newobj",
                    "numinlets": 5,
                    "numoutlets": 1,
                    "outlettype": [ "signal" ],
                    "patching_rect": [ 678.0, 449.0, 112.0, 22.0 ],
                    "text": "comb~ 200 61 0.94"
                }
            },
            {
                "box": {
                    "id": "obj-27",
                    "maxclass": "newobj",
                    "numinlets": 5,
                    "numoutlets": 1,
                    "outlettype": [ "signal" ],
                    "patching_rect": [ 560.1100000000001, 449.0, 112.0, 22.0 ],
                    "text": "comb~ 200 53 0.95"
                }
            },
            {
                "box": {
                    "id": "obj-26",
                    "maxclass": "newobj",
                    "numinlets": 5,
                    "numoutlets": 1,
                    "outlettype": [ "signal" ],
                    "patching_rect": [ 440.0, 449.0, 112.0, 22.0 ],
                    "text": "comb~ 200 47 0.96"
                }
            },
            {
                "box": {
                    "id": "obj-25",
                    "maxclass": "newobj",
                    "numinlets": 5,
                    "numoutlets": 1,
                    "outlettype": [ "signal" ],
                    "patching_rect": [ 326.0, 449.0, 112.0, 22.0 ],
                    "text": "comb~ 200 40 0.97"
                }
            },
            {
                "box": {
                    "id": "obj-24",
                    "maxclass": "newobj",
                    "numinlets": 2,
                    "numoutlets": 1,
                    "outlettype": [ "signal" ],
                    "patching_rect": [ 164.28571271896362, 666.0714222192764, 29.5, 22.0 ],
                    "text": "*~"
                }
            },
            {
                "box": {
                    "id": "obj-23",
                    "maxclass": "newobj",
                    "numinlets": 2,
                    "numoutlets": 1,
                    "outlettype": [ "int" ],
                    "patching_rect": [ 724.9999723434448, 126.04166185855865, 46.0, 22.0 ],
                    "text": "+ 2000"
                }
            },
            {
                "box": {
                    "id": "obj-22",
                    "maxclass": "ezdac~",
                    "numinlets": 2,
                    "numoutlets": 0,
                    "patching_rect": [ 403.0, 899.0, 45.0, 45.0 ]
                }
            },
            {
                "box": {
                    "id": "obj-21",
                    "lastchannelcount": 0,
                    "maxclass": "live.gain~",
                    "numinlets": 2,
                    "numoutlets": 5,
                    "outlettype": [ "signal", "signal", "", "float", "list" ],
                    "parameter_enable": 1,
                    "patching_rect": [ 403.12498462200165, 682.2916406393051, 48.0, 136.0 ],
                    "saved_attribute_attributes": {
                        "valueof": {
                            "parameter_longname": "live.gain~",
                            "parameter_mmax": 6.0,
                            "parameter_mmin": -70.0,
                            "parameter_modmode": 3,
                            "parameter_shortname": "live.gain~",
                            "parameter_type": 0,
                            "parameter_unitstyle": 4
                        }
                    },
                    "varname": "live.gain~"
                }
            },
            {
                "box": {
                    "id": "obj-16",
                    "maxclass": "newobj",
                    "numinlets": 2,
                    "numoutlets": 1,
                    "outlettype": [ "signal" ],
                    "patching_rect": [ 209.0, 711.6071360707283, 47.0, 22.0 ],
                    "text": "*~ 0.04"
                }
            },
            {
                "box": {
                    "id": "obj-15",
                    "maxclass": "newobj",
                    "numinlets": 3,
                    "numoutlets": 1,
                    "outlettype": [ "signal" ],
                    "patching_rect": [ 217.85714077949524, 666.0714222192764, 78.0, 22.0 ],
                    "text": "lores~ 40 0.8"
                }
            },
            {
                "box": {
                    "id": "obj-14",
                    "maxclass": "newobj",
                    "numinlets": 1,
                    "numoutlets": 1,
                    "outlettype": [ "signal" ],
                    "patching_rect": [ 217.85714077949524, 624.9999940395355, 38.0, 22.0 ],
                    "text": "pink~"
                }
            },
            {
                "box": {
                    "id": "obj-13",
                    "maxclass": "newobj",
                    "numinlets": 2,
                    "numoutlets": 1,
                    "outlettype": [ "signal" ],
                    "patching_rect": [ 170.5, 486.0, 70.0, 22.0 ],
                    "text": "cycle~ 55.4"
                }
            },
            {
                "box": {
                    "id": "obj-12",
                    "maxclass": "newobj",
                    "numinlets": 2,
                    "numoutlets": 1,
                    "outlettype": [ "signal" ],
                    "patching_rect": [ 107.0, 486.0, 60.0, 22.0 ],
                    "text": "cycle~ 55"
                }
            },
            {
                "box": {
                    "id": "obj-9",
                    "maxclass": "newobj",
                    "numinlets": 4,
                    "numoutlets": 1,
                    "outlettype": [ "signal" ],
                    "patching_rect": [ 1162.4999556541443, 161.4583271741867, 119.0, 22.0 ],
                    "text": "reson~ 0.4 3810 800"
                }
            },
            {
                "box": {
                    "id": "obj-8",
                    "maxclass": "newobj",
                    "numinlets": 4,
                    "numoutlets": 1,
                    "outlettype": [ "signal" ],
                    "patching_rect": [ 1034.3749605417252, 161.4583271741867, 119.0, 22.0 ],
                    "text": "reson~ 0.6 2560 500"
                }
            },
            {
                "box": {
                    "id": "obj-7",
                    "maxclass": "newobj",
                    "numinlets": 4,
                    "numoutlets": 1,
                    "outlettype": [ "signal" ],
                    "patching_rect": [ 915.6249650716782, 161.4583271741867, 109.0, 22.0 ],
                    "text": "reson~ 1 1200 300"
                }
            },
            {
                "box": {
                    "id": "obj-6",
                    "maxclass": "newobj",
                    "numinlets": 1,
                    "numoutlets": 1,
                    "outlettype": [ "signal" ],
                    "patching_rect": [ 956.2499635219574, 94.79166305065155, 39.0, 22.0 ],
                    "text": "click~"
                }
            },
            {
                "box": {
                    "id": "obj-4",
                    "maxclass": "button",
                    "numinlets": 1,
                    "numoutlets": 1,
                    "outlettype": [ "bang" ],
                    "parameter_enable": 0,
                    "patching_rect": [ 50.0, 198.0, 24.0, 24.0 ]
                }
            },
            {
                "box": {
                    "id": "obj-3",
                    "maxclass": "newobj",
                    "numinlets": 2,
                    "numoutlets": 1,
                    "outlettype": [ "int" ],
                    "patching_rect": [ 727.0833055973053, 156.24999403953552, 44.0, 22.0 ],
                    "text": "decide"
                }
            },
            {
                "box": {
                    "id": "obj-2",
                    "maxclass": "newobj",
                    "numinlets": 2,
                    "numoutlets": 1,
                    "outlettype": [ "" ],
                    "patching_rect": [ 727.0833055973053, 94.79166305065155, 79.0, 22.0 ],
                    "text": "random 3000"
                }
            },
            {
                "box": {
                    "id": "obj-1",
                    "maxclass": "newobj",
                    "numinlets": 2,
                    "numoutlets": 1,
                    "outlettype": [ "bang" ],
                    "patching_rect": [ 727.0833055973053, 57.291664481163025, 63.0, 22.0 ],
                    "text": "metro 750"
                }
            }
        ],
        "lines": [
            {
                "patchline": {
                    "destination": [ "obj-2", 0 ],
                    "source": [ "obj-1", 0 ]
                }
            },
            {
                "patchline": {
                    "destination": [ "obj-34", 0 ],
                    "midpoints": [ 116.5, 522.5, 180.0, 522.5 ],
                    "source": [ "obj-12", 0 ]
                }
            },
            {
                "patchline": {
                    "destination": [ "obj-34", 0 ],
                    "source": [ "obj-13", 0 ]
                }
            },
            {
                "patchline": {
                    "destination": [ "obj-15", 0 ],
                    "source": [ "obj-14", 0 ]
                }
            },
            {
                "patchline": {
                    "destination": [ "obj-16", 0 ],
                    "source": [ "obj-15", 0 ]
                }
            },
            {
                "patchline": {
                    "destination": [ "obj-63", 0 ],
                    "midpoints": [ 218.5, 760.3388662592042 ],
                    "source": [ "obj-16", 0 ]
                }
            },
            {
                "patchline": {
                    "destination": [ "obj-23", 0 ],
                    "source": [ "obj-2", 0 ]
                }
            },
            {
                "patchline": {
                    "destination": [ "obj-22", 1 ],
                    "midpoints": [ 412.62498462200165, 840.5, 438.5, 840.5 ],
                    "order": 0,
                    "source": [ "obj-21", 0 ]
                }
            },
            {
                "patchline": {
                    "destination": [ "obj-22", 0 ],
                    "order": 1,
                    "source": [ "obj-21", 0 ]
                }
            },
            {
                "patchline": {
                    "destination": [ "obj-1", 1 ],
                    "midpoints": [ 734.4999723434448, 158.79166036844254, 708.7252030968666, 158.79166036844254, 708.7252030968666, 47.791660368442535, 780.5833055973053, 47.791660368442535 ],
                    "order": 0,
                    "source": [ "obj-23", 0 ]
                }
            },
            {
                "patchline": {
                    "destination": [ "obj-3", 0 ],
                    "order": 1,
                    "source": [ "obj-23", 0 ]
                }
            },
            {
                "patchline": {
                    "destination": [ "obj-16", 0 ],
                    "midpoints": [ 173.78571271896362, 700.4499940395356, 218.5, 700.4499940395356 ],
                    "source": [ "obj-24", 0 ]
                }
            },
            {
                "patchline": {
                    "destination": [ "obj-29", 0 ],
                    "midpoints": [ 335.5, 504.0, 562.5, 504.0 ],
                    "source": [ "obj-25", 0 ]
                }
            },
            {
                "patchline": {
                    "destination": [ "obj-29", 0 ],
                    "midpoints": [ 449.5, 504.0, 562.5, 504.0 ],
                    "source": [ "obj-26", 0 ]
                }
            },
            {
                "patchline": {
                    "destination": [ "obj-29", 0 ],
                    "midpoints": [ 569.6100000000001, 504.0, 562.5, 504.0 ],
                    "source": [ "obj-27", 0 ]
                }
            },
            {
                "patchline": {
                    "destination": [ "obj-29", 0 ],
                    "midpoints": [ 687.5, 504.0, 562.5, 504.0 ],
                    "source": [ "obj-28", 0 ]
                }
            },
            {
                "patchline": {
                    "destination": [ "obj-30", 0 ],
                    "source": [ "obj-29", 0 ]
                }
            },
            {
                "patchline": {
                    "destination": [ "obj-37", 0 ],
                    "midpoints": [ 562.5, 602.500009059906, 504.2916477918625, 602.500009059906 ],
                    "source": [ "obj-30", 0 ]
                }
            },
            {
                "patchline": {
                    "destination": [ "obj-32", 0 ],
                    "source": [ "obj-31", 0 ]
                }
            },
            {
                "patchline": {
                    "destination": [ "obj-33", 0 ],
                    "source": [ "obj-32", 0 ]
                }
            },
            {
                "patchline": {
                    "destination": [ "obj-24", 0 ],
                    "source": [ "obj-33", 0 ]
                }
            },
            {
                "patchline": {
                    "destination": [ "obj-31", 0 ],
                    "source": [ "obj-34", 0 ]
                }
            },
            {
                "patchline": {
                    "destination": [ "obj-1", 0 ],
                    "source": [ "obj-36", 0 ]
                }
            },
            {
                "patchline": {
                    "destination": [ "obj-64", 0 ],
                    "midpoints": [ 504.2916477918625, 605.7916439771652, 488.5, 605.7916439771652 ],
                    "source": [ "obj-37", 0 ]
                }
            },
            {
                "patchline": {
                    "destination": [ "obj-42", 0 ],
                    "source": [ "obj-41", 0 ]
                }
            },
            {
                "patchline": {
                    "destination": [ "obj-43", 0 ],
                    "source": [ "obj-42", 0 ]
                }
            },
            {
                "patchline": {
                    "destination": [ "obj-44", 0 ],
                    "order": 2,
                    "source": [ "obj-43", 0 ]
                }
            },
            {
                "patchline": {
                    "destination": [ "obj-45", 0 ],
                    "order": 1,
                    "source": [ "obj-43", 0 ]
                }
            },
            {
                "patchline": {
                    "destination": [ "obj-46", 0 ],
                    "order": 0,
                    "source": [ "obj-43", 0 ]
                }
            },
            {
                "patchline": {
                    "destination": [ "obj-4", 0 ],
                    "order": 1,
                    "source": [ "obj-44", 0 ]
                }
            },
            {
                "patchline": {
                    "destination": [ "obj-53", 0 ],
                    "order": 2,
                    "source": [ "obj-44", 0 ]
                }
            },
            {
                "patchline": {
                    "destination": [ "obj-56", 0 ],
                    "order": 0,
                    "source": [ "obj-44", 0 ]
                }
            },
            {
                "patchline": {
                    "destination": [ "obj-4", 0 ],
                    "order": 1,
                    "source": [ "obj-45", 0 ]
                }
            },
            {
                "patchline": {
                    "destination": [ "obj-56", 0 ],
                    "order": 0,
                    "source": [ "obj-45", 0 ]
                }
            },
            {
                "patchline": {
                    "destination": [ "obj-4", 0 ],
                    "source": [ "obj-46", 0 ]
                }
            },
            {
                "patchline": {
                    "destination": [ "obj-55", 0 ],
                    "source": [ "obj-48", 0 ]
                }
            },
            {
                "patchline": {
                    "destination": [ "obj-55", 1 ],
                    "source": [ "obj-49", 0 ]
                }
            },
            {
                "patchline": {
                    "destination": [ "obj-49", 0 ],
                    "source": [ "obj-53", 0 ]
                }
            },
            {
                "patchline": {
                    "destination": [ "obj-66", 0 ],
                    "order": 0,
                    "source": [ "obj-55", 0 ]
                }
            },
            {
                "patchline": {
                    "destination": [ "obj-67", 0 ],
                    "midpoints": [ 31.0189870595932, 376.9367043375969, 126.7594935297966, 376.9367043375969, 126.7594935297966, 339.99998664855957, 536.5833132266998, 339.99998664855957 ],
                    "order": 1,
                    "source": [ "obj-55", 0 ]
                }
            },
            {
                "patchline": {
                    "destination": [ "obj-68", 0 ],
                    "order": 2,
                    "source": [ "obj-55", 0 ]
                }
            },
            {
                "patchline": {
                    "destination": [ "obj-69", 0 ],
                    "order": 3,
                    "source": [ "obj-55", 0 ]
                }
            },
            {
                "patchline": {
                    "destination": [ "obj-58", 0 ],
                    "source": [ "obj-56", 0 ]
                }
            },
            {
                "patchline": {
                    "destination": [ "obj-59", 0 ],
                    "source": [ "obj-58", 0 ]
                }
            },
            {
                "patchline": {
                    "destination": [ "obj-16", 1 ],
                    "midpoints": [ 157.78571271896362, 453.1479657832533, 246.5, 453.1479657832533 ],
                    "source": [ "obj-59", 0 ]
                }
            },
            {
                "patchline": {
                    "destination": [ "obj-7", 0 ],
                    "midpoints": [ 965.7499635219574, 142.4583271741867, 925.1249650716782, 142.4583271741867 ],
                    "order": 2,
                    "source": [ "obj-6", 0 ]
                }
            },
            {
                "patchline": {
                    "destination": [ "obj-8", 0 ],
                    "midpoints": [ 965.7499635219574, 142.4583271741867, 1043.8749605417252, 142.4583271741867 ],
                    "order": 1,
                    "source": [ "obj-6", 0 ]
                }
            },
            {
                "patchline": {
                    "destination": [ "obj-9", 0 ],
                    "midpoints": [ 965.7499635219574, 142.4583271741867, 1171.9999556541443, 142.4583271741867 ],
                    "order": 0,
                    "source": [ "obj-6", 0 ]
                }
            },
            {
                "patchline": {
                    "destination": [ "obj-29", 0 ],
                    "midpoints": [ 313.66665506362915, 802.8333039283752, 438.0833275318146, 802.8333039283752, 438.0833275318146, 527.0, 562.5, 527.0 ],
                    "source": [ "obj-62", 0 ]
                }
            },
            {
                "patchline": {
                    "destination": [ "obj-62", 0 ],
                    "midpoints": [ 252.20832407474518, 790.3333044052124, 282.93748956918716, 790.3333044052124, 282.93748956918716, 760.8333039283752, 313.66665506362915, 760.8333039283752 ],
                    "source": [ "obj-63", 0 ]
                }
            },
            {
                "patchline": {
                    "destination": [ "obj-65", 0 ],
                    "midpoints": [ 488.5, 651.3273660540581, 477.20831549167633, 651.3273660540581 ],
                    "source": [ "obj-64", 0 ]
                }
            },
            {
                "patchline": {
                    "destination": [ "obj-21", 0 ],
                    "midpoints": [ 477.20831549167633, 698.0714222192764, 444.916650056839, 698.0714222192764, 444.916650056839, 672.2916406393051, 412.62498462200165, 672.2916406393051 ],
                    "source": [ "obj-65", 0 ]
                }
            },
            {
                "patchline": {
                    "destination": [ "obj-28", 0 ],
                    "source": [ "obj-66", 0 ]
                }
            },
            {
                "patchline": {
                    "destination": [ "obj-27", 0 ],
                    "midpoints": [ 536.5833132266998, 410.4999933242798, 569.6100000000001, 410.4999933242798 ],
                    "source": [ "obj-67", 0 ]
                }
            },
            {
                "patchline": {
                    "destination": [ "obj-26", 0 ],
                    "source": [ "obj-68", 0 ]
                }
            },
            {
                "patchline": {
                    "destination": [ "obj-25", 0 ],
                    "source": [ "obj-69", 0 ]
                }
            },
            {
                "patchline": {
                    "destination": [ "obj-77", 0 ],
                    "source": [ "obj-72", 0 ]
                }
            },
            {
                "patchline": {
                    "destination": [ "obj-63", 1 ],
                    "source": [ "obj-77", 0 ]
                }
            },
            {
                "patchline": {
                    "destination": [ "obj-77", 2 ],
                    "source": [ "obj-82", 0 ]
                }
            }
        ],
        "parameters": {
            "obj-21": [ "live.gain~", "live.gain~", 0 ],
            "parameterbanks": {
                "0": {
                    "index": 0,
                    "name": "",
                    "parameters": [ "-", "-", "-", "-", "-", "-", "-", "-" ],
                    "buttons": [ "-", "-", "-", "-", "-", "-", "-", "-" ]
                }
            },
            "inherited_shortname": 1
        },
        "autosave": 0
    }
}